<?xml version="1.0"?>
<svg xmlns="http://www.w3.org/2000/svg" id="Layer_1" enable-background="new 0 0 512 512" height="512px" viewBox="0 0 512 512" width="512px" class=""><g><g><g><path d="m81 392v-272c0-55.229 44.771-100 100-100h-61c-55.229 0-100 44.771-100 100v272c0 55.228 44.771 100 100 100h61c-55.229 0-100-44.772-100-100z" fill="#cee1f2" data-original="#CEE1F2" class=""/><path d="m392 512h-272c-66.168 0-120-53.832-120-120v-272c0-66.168 53.832-120 120-120h272c66.168 0 120 53.832 120 120v272c0 66.168-53.832 120-120 120zm-272-472c-44.112 0-80 35.888-80 80v272c0 44.112 35.888 80 80 80h272c44.112 0 80-35.888 80-80v-272c0-44.112-35.888-80-80-80zm91 61c0-11.046-8.954-20-20-20h-84c-11.046 0-20 8.954-20 20s8.954 20 20 20h84c11.046 0 20-8.954 20-20zm183 233c0-11.046-8.954-20-20-20h-167c-11.046 0-20 8.954-20 20s8.954 20 20 20h167c11.046 0 20-8.954 20-20zm27 78c0-11.046-8.954-20-20-20h-44c-11.046 0-20 8.954-20 20s8.954 20 20 20h44c11.046 0 20-8.954 20-20z" fill="#1428bf" data-original="#C12020" class="" style="fill:#C12020" data-old_color="#1428bf"/><path d="m404 276h-141c-11.046 0-20-8.954-20-20s8.954-20 20-20h141c11.046 0 20 8.954 20 20s-8.954 20-20 20zm-50-97c0-11.046-8.954-20-20-20h-187c-11.046 0-20 8.954-20 20s8.954 20 20 20h187c11.046 0 20-8.954 20-20z" fill="#ff5cf0" data-original="#CD0E0E" class="active-path" data-old_color="#ff5cf0" style="fill:#CD0E0E"/></g></g></g> </svg>
